<svg width="264" height="54" viewBox="0 0 264 54" fill="none" xmlns="http://www.w3.org/2000/svg">
<path d="M41.4819 26.128C41.2473 29.646 40.3092 32.695 38.6674 35.2749C37.0257 37.8548 34.739 39.8483 31.8659 41.2555C28.9342 42.6627 25.5334 43.3077 21.6636 43.3077C17.3247 43.3077 13.6308 42.4868 10.5232 40.7278C7.35694 39.0274 4.95295 36.5648 3.3112 33.34C1.66945 30.1737 0.848579 26.3039 0.848579 21.8477C0.848579 17.3915 1.66945 13.5803 3.3112 10.3555C4.95295 7.13061 7.35694 4.66799 10.5232 2.9676C13.6308 1.26722 17.3247 0.387714 21.6636 0.387714C25.5334 0.387714 28.9342 1.09132 31.8659 2.49853C34.7976 3.90575 37.0843 5.84066 38.7261 8.42055C40.3678 11.0004 41.2473 14.108 41.4819 17.6261H30.9864C30.6932 14.753 29.6964 12.4663 28.0547 10.8245C26.4129 9.18279 24.2435 8.36192 21.5463 8.36192C18.3801 8.36192 15.9761 9.59323 14.2171 11.9386C12.4581 14.2839 11.6372 17.6261 11.6372 21.8477C11.6372 26.0693 12.5167 29.4115 14.2757 31.7568C16.0348 34.1608 18.4974 35.3335 21.6636 35.3335C24.3608 35.3335 26.5302 34.5126 28.172 32.8709C29.8137 31.2291 30.7519 29.001 30.9864 26.128H41.4819ZM45.3682 42.3696V1.32585H54.9841V42.3696H45.3682ZM61.7802 28.532C63.8324 26.9489 66.9399 26.1866 71.103 26.1866C74.7969 26.2453 77.3181 25.8934 78.7254 25.1898C80.0739 24.4862 80.7775 23.4895 80.7775 22.1409C80.7775 21.0855 80.3085 20.1473 79.429 19.3851C78.4908 18.6228 77.1422 18.2124 75.266 18.2124C73.2724 18.2124 71.6893 18.7401 70.5166 19.7955C69.3439 20.8509 68.699 22.3754 68.5817 24.2517H59.1416C59.3762 20.4991 60.842 17.3329 63.5392 14.8703C66.1777 12.4077 70.0475 11.1763 75.1487 11.1763C80.0739 11.1763 83.8265 12.349 86.3478 14.5771C88.869 16.8052 90.159 19.6783 90.159 23.1377V42.3696H81.0707L80.7775 33.164H80.4844C80.0739 36.3303 78.8426 38.8515 76.8491 40.6106C74.7969 42.4282 72.1584 43.3077 68.9335 43.3077C65.8845 43.3077 63.4219 42.6041 61.5456 41.1969C59.6693 39.7897 58.7312 37.7375 58.7312 34.9231C58.7312 32.2259 59.728 30.1151 61.7802 28.532ZM69.4612 36.5648C70.1648 37.1512 71.2202 37.3857 72.5102 37.3857C73.9174 37.3857 75.2073 37.0339 76.4973 36.3303C77.7872 35.6267 78.784 34.6885 79.6049 33.5159C80.3671 32.3432 80.7775 31.0532 80.7775 29.646V24.9553H80.4844C80.2498 26.3039 79.898 27.3593 79.3117 28.1802C78.7254 29.001 77.8458 29.7047 76.6732 30.1737C75.5005 30.6428 73.8587 30.9946 71.7479 31.1119C70.6925 31.2291 69.813 31.5223 69.2267 32.05C68.6403 32.5777 68.3472 33.2813 68.3472 34.2195C68.3472 35.2749 68.699 36.0371 69.4612 36.5648ZM97.9848 40.4933C95.2876 38.617 93.939 35.9198 93.939 32.3432H103.203C103.262 33.8677 103.848 34.9817 104.962 35.8026C106.076 36.6234 107.659 36.9753 109.77 36.9753C111.412 36.9753 112.643 36.7407 113.581 36.213C114.461 35.6853 114.93 34.9231 114.93 33.9849C114.93 33.2813 114.578 32.7536 113.992 32.2845C113.405 31.8155 112.35 31.405 110.826 31.0532L104.552 29.8219C101.268 29.2356 98.8056 28.1802 97.1052 26.5971C95.3462 25.0726 94.5254 23.079 94.5254 20.675C94.5254 18.7988 95.0531 17.157 96.2257 15.6912C97.3984 14.2839 99.0402 13.1699 101.151 12.349C103.262 11.5868 105.724 11.1763 108.597 11.1763C113.405 11.1763 117.158 12.1731 119.738 14.0494C122.318 15.9257 123.666 18.6815 123.666 22.2581H114.813C114.813 20.7923 114.285 19.6196 113.288 18.7988C112.291 17.9779 110.884 17.5088 109.125 17.5088C107.483 17.5088 106.193 17.802 105.255 18.3297C104.317 18.8574 103.907 19.561 103.907 20.4405C103.907 21.8477 105.138 22.8445 107.601 23.3722L114.754 24.838C121.086 26.1866 124.311 29.1183 124.311 33.6331C124.311 36.7993 123.021 39.2033 120.5 40.8451C117.92 42.4868 114.285 43.3077 109.594 43.3077C104.552 43.3077 100.682 42.3696 97.9848 40.4933ZM130.852 40.4933C128.155 38.617 126.806 35.9198 126.806 32.3432H136.07C136.129 33.8677 136.715 34.9817 137.829 35.8026C138.943 36.6234 140.526 36.9753 142.637 36.9753C144.279 36.9753 145.51 36.7407 146.448 36.213C147.328 35.6853 147.797 34.9231 147.797 33.9849C147.797 33.2813 147.445 32.7536 146.859 32.2845C146.272 31.8155 145.217 31.405 143.693 31.0532L137.419 29.8219C134.135 29.2356 131.673 28.1802 129.972 26.5971C128.213 25.0726 127.392 23.079 127.392 20.675C127.392 18.7988 127.92 17.157 129.093 15.6912C130.265 14.2839 131.907 13.1699 134.018 12.349C136.129 11.5868 138.591 11.1763 141.465 11.1763C146.272 11.1763 150.025 12.1731 152.605 14.0494C155.185 15.9257 156.533 18.6815 156.533 22.2581H147.68C147.68 20.7923 147.152 19.6196 146.155 18.7988C145.158 17.9779 143.751 17.5088 141.992 17.5088C140.35 17.5088 139.061 17.802 138.122 18.3297C137.184 18.8574 136.774 19.561 136.774 20.4405C136.774 21.8477 138.005 22.8445 140.468 23.3722L147.621 24.838C153.954 26.1866 157.178 29.1183 157.178 33.6331C157.178 36.7993 155.888 39.2033 153.367 40.8451C150.787 42.4868 147.152 43.3077 142.461 43.3077C137.419 43.3077 133.549 42.3696 130.852 40.4933Z" fill="#6C63FF"/>
<path d="M188.018 13.1699C189.894 14.4598 191.419 16.3361 192.474 18.7401C193.53 21.2027 194.116 24.0172 194.116 27.242C194.116 30.5255 193.53 33.34 192.474 35.7439C191.419 38.2066 189.894 40.0242 188.018 41.3142C186.142 42.6041 183.972 43.2491 181.568 43.2491C178.988 43.2491 176.76 42.5455 174.767 41.021C172.773 39.4965 171.307 37.2098 170.369 34.0436H170.017V53.1582H160.46V12.1145H169.724L170.017 20.4991H170.369C171.307 17.3329 172.773 14.9875 174.767 13.4631C176.76 11.9386 178.988 11.1763 181.568 11.1763C183.972 11.1763 186.142 11.88 188.018 13.1699ZM182.506 34.3954C183.796 32.7536 184.5 30.3496 184.5 27.242C184.5 24.1931 183.796 21.7891 182.506 20.0887C181.216 18.3883 179.457 17.5088 177.229 17.5088C175.001 17.5088 173.242 18.271 171.952 19.6783C170.662 21.1441 170.017 23.0204 170.017 25.3657V29.1769C170.017 31.4637 170.662 33.34 171.952 34.7472C173.242 36.213 175.001 36.9166 177.229 36.9166C179.457 36.9166 181.216 36.0957 182.506 34.3954ZM220.201 12.1145H229.817V42.3696H220.494L220.201 33.0468H219.849C219.556 35.1576 218.853 37.0339 217.797 38.5584C216.683 40.0828 215.334 41.2555 213.751 42.0764C212.11 42.8973 210.409 43.3077 208.65 43.3077C206.657 43.3077 204.78 42.8973 203.08 41.9591C201.321 41.021 199.972 39.6724 198.917 37.9134C197.862 36.1544 197.393 33.9849 197.393 31.4637V12.1145H206.95V28.5906C206.95 33.5745 209.119 36.0371 213.458 36.0371C215.51 36.0371 217.152 35.3335 218.383 33.9263C219.556 32.5191 220.201 30.5842 220.201 28.0043V12.1145ZM237.183 40.4933C234.486 38.617 233.137 35.9198 233.137 32.3432H242.401C242.46 33.8677 243.046 34.9817 244.16 35.8026C245.274 36.6234 246.858 36.9753 248.968 36.9753C250.61 36.9753 251.841 36.7407 252.78 36.213C253.659 35.6853 254.128 34.9231 254.128 33.9849C254.128 33.2813 253.776 32.7536 253.19 32.2845C252.604 31.8155 251.548 31.405 250.024 31.0532L243.75 29.8219C240.466 29.2356 238.004 28.1802 236.303 26.5971C234.544 25.0726 233.724 23.079 233.724 20.675C233.724 18.7988 234.251 17.157 235.424 15.6912C236.597 14.2839 238.238 13.1699 240.349 12.349C242.46 11.5868 244.923 11.1763 247.796 11.1763C252.604 11.1763 256.356 12.1731 258.936 14.0494C261.516 15.9257 262.865 18.6815 262.865 22.2581H254.011C254.011 20.7923 253.483 19.6196 252.486 18.7988C251.49 17.9779 250.082 17.5088 248.323 17.5088C246.682 17.5088 245.392 17.802 244.454 18.3297C243.515 18.8574 243.105 19.561 243.105 20.4405C243.105 21.8477 244.336 22.8445 246.799 23.3722L253.952 24.838C260.285 26.1866 263.51 29.1183 263.51 33.6331C263.51 36.7993 262.22 39.2033 259.698 40.8451C257.118 42.4868 253.483 43.3077 248.792 43.3077C243.75 43.3077 239.88 42.3696 237.183 40.4933Z" fill="#2F2E41"/>
</svg>
